<svg width="15" height="17" viewBox="0 0 15 17" fill="none" xmlns="http://www.w3.org/2000/svg">
<path fill-rule="evenodd" clip-rule="evenodd" d="M6.33374 0.666748C6.14808 0.666847 5.96611 0.718631 5.80821 0.8163C5.65032 0.91397 5.52273 1.05367 5.43974 1.21975L4.71574 2.66675H1.33374C1.06852 2.66675 0.81417 2.77211 0.626633 2.95964C0.439097 3.14718 0.33374 3.40153 0.33374 3.66675C0.33374 3.93196 0.439097 4.18632 0.626633 4.37386C0.81417 4.56139 1.06852 4.66675 1.33374 4.66675V14.6667C1.33374 15.1972 1.54445 15.7059 1.91953 16.081C2.2946 16.456 2.80331 16.6667 3.33374 16.6667H11.3337C11.8642 16.6667 12.3729 16.456 12.748 16.081C13.123 15.7059 13.3337 15.1972 13.3337 14.6667V4.66675C13.599 4.66675 13.8533 4.56139 14.0408 4.37386C14.2284 4.18632 14.3337 3.93196 14.3337 3.66675C14.3337 3.40153 14.2284 3.14718 14.0408 2.95964C13.8533 2.77211 13.599 2.66675 13.3337 2.66675H9.95174L9.22774 1.21975C9.14475 1.05367 9.01716 0.91397 8.85927 0.8163C8.70137 0.718631 8.5194 0.666847 8.33374 0.666748H6.33374ZM4.33374 6.66675C4.33374 6.40153 4.4391 6.14718 4.62663 5.95964C4.81417 5.77211 5.06852 5.66675 5.33374 5.66675C5.59896 5.66675 5.85331 5.77211 6.04085 5.95964C6.22838 6.14718 6.33374 6.40153 6.33374 6.66675V12.6667C6.33374 12.932 6.22838 13.1863 6.04085 13.3739C5.85331 13.5614 5.59896 13.6667 5.33374 13.6667C5.06852 13.6667 4.81417 13.5614 4.62663 13.3739C4.4391 13.1863 4.33374 12.932 4.33374 12.6667V6.66675ZM9.33374 5.66675C9.06852 5.66675 8.81417 5.77211 8.62663 5.95964C8.4391 6.14718 8.33374 6.40153 8.33374 6.66675V12.6667C8.33374 12.932 8.4391 13.1863 8.62663 13.3739C8.81417 13.5614 9.06852 13.6667 9.33374 13.6667C9.59896 13.6667 9.85331 13.5614 10.0408 13.3739C10.2284 13.1863 10.3337 12.932 10.3337 12.6667V6.66675C10.3337 6.40153 10.2284 6.14718 10.0408 5.95964C9.85331 5.77211 9.59896 5.66675 9.33374 5.66675Z" fill="#F88F09"/>
</svg>
