<svg width="24" height="25" viewBox="0 0 24 25" fill="none" xmlns="http://www.w3.org/2000/svg">
<path d="M10.2908 4.60337L1.82075 18.7434C1.64612 19.0458 1.55372 19.3887 1.55274 19.7379C1.55176 20.0871 1.64224 20.4305 1.81518 20.7339C1.98812 21.0373 2.23748 21.2901 2.53846 21.4672C2.83944 21.6443 3.18155 21.7395 3.53075 21.7434H20.4708C20.82 21.7395 21.1621 21.6443 21.463 21.4672C21.764 21.2901 22.0134 21.0373 22.1863 20.7339C22.3593 20.4305 22.4497 20.0871 22.4488 19.7379C22.4478 19.3887 22.3554 19.0458 22.1808 18.7434L13.7108 4.60337C13.5325 4.30948 13.2815 4.06649 12.9819 3.89785C12.6824 3.72922 12.3445 3.64062 12.0008 3.64062C11.657 3.64063 11.3191 3.72922 11.0196 3.89785C10.72 4.06649 10.469 4.30948 10.2908 4.60337V4.60337Z" stroke="#F03D3E" stroke-width="2" stroke-linecap="round" stroke-linejoin="round"/>
<path d="M12 9.74316V13.7432" stroke="#F03D3E" stroke-width="2" stroke-linecap="round" stroke-linejoin="round"/>
<path d="M12 16.7432V17.2432" stroke="#F03D3E" stroke-width="2" stroke-linecap="round" stroke-linejoin="round"/>
</svg>
