<svg width="22" height="22" viewBox="0 0 22 22" fill="none" xmlns="http://www.w3.org/2000/svg">
<path d="M19.4002 0.199951H2.6002C1.2802 0.199951 0.200195 1.27995 0.200195 2.59995V19.4C0.200195 20.7211 1.2802 21.7999 2.6002 21.7999H11.0002V13.4H8.60019V10.4299H11.0002V7.96995C11.0002 5.37315 12.4546 3.54915 15.5194 3.54915L17.683 3.55155V6.67755H16.2466C15.0538 6.67755 14.6002 7.57275 14.6002 8.40315V10.4312H17.6818L17.0002 13.4H14.6002V21.7999H19.4002C20.7202 21.7999 21.8002 20.7211 21.8002 19.4V2.59995C21.8002 1.27995 20.7202 0.199951 19.4002 0.199951Z" fill="#699BF7"/>
</svg>
