<svg width="17" height="12" viewBox="0 0 17 12" fill="none" xmlns="http://www.w3.org/2000/svg">
<path d="M3.50004 12.0001C2.60457 11.9989 1.7436 11.6545 1.09431 11.0378C0.445021 10.4212 0.0567968 9.57906 0.00952323 8.68484C-0.0377504 7.79061 0.259523 6.91228 0.840174 6.23057C1.42082 5.54887 2.24068 5.11565 3.13104 5.02006C2.86887 3.99195 3.02586 2.9018 3.56747 1.98944C4.10907 1.07708 4.99093 0.417232 6.01904 0.155065C7.04715 -0.107101 8.1373 0.0498859 9.04966 0.591491C9.96203 1.1331 10.6219 2.01495 10.884 3.04307C11.4955 2.95793 12.1179 2.99951 12.7126 3.16523C13.3073 3.33095 13.8615 3.61726 14.3408 4.00635C14.8201 4.39544 15.2142 4.87898 15.4986 5.42691C15.783 5.97484 15.9517 6.57543 15.994 7.19132C16.0364 7.80721 15.9516 8.42523 15.7448 9.00693C15.5381 9.58864 15.2139 10.1216 14.7924 10.5726C14.3709 11.0237 13.8611 11.3832 13.2947 11.6287C12.7283 11.8743 12.1174 12.0007 11.5 12.0001H9.00004V8.41306L10.293 9.70606C10.4816 9.88822 10.7342 9.98902 10.9964 9.98674C11.2586 9.98446 11.5095 9.87929 11.6949 9.69388C11.8803 9.50848 11.9854 9.25766 11.9877 8.99547C11.99 8.73327 11.8892 8.48067 11.707 8.29206L8.70704 5.29206C8.51951 5.10459 8.2652 4.99928 8.00004 4.99928C7.73488 4.99928 7.48057 5.10459 7.29304 5.29206L4.29304 8.29206C4.11088 8.48067 4.01009 8.73327 4.01237 8.99547C4.01464 9.25766 4.11981 9.50848 4.30522 9.69388C4.49063 9.87929 4.74144 9.98446 5.00364 9.98674C5.26584 9.98902 5.51844 9.88822 5.70704 9.70606L7.00004 8.41406V12.0001H3.50004Z" fill="#F88F09"/>
</svg>
