<svg width="35" height="24" viewBox="0 0 35 24" fill="none" xmlns="http://www.w3.org/2000/svg">
<g clip-path="url(#clip0_423_51380)">
<path d="M33.7765 3.74333C33.5807 3.01981 33.1988 2.36019 32.6688 1.83017C32.1388 1.30015 31.4792 0.918215 30.7557 0.7224C28.1069 0 17.4463 0 17.4463 0C17.4463 0 6.78526 0.0218666 4.13647 0.744267C3.41293 0.940093 2.75332 1.32205 2.22332 1.85209C1.69332 2.38214 1.31143 3.04178 1.11566 3.76533C0.314465 8.47173 0.00366488 15.6432 1.13766 20.1613C1.33345 20.8849 1.71535 21.5445 2.24535 22.0745C2.77535 22.6045 3.43495 22.9865 4.15847 23.1823C6.80727 23.9047 17.4681 23.9047 17.4681 23.9047C17.4681 23.9047 28.1287 23.9047 30.7774 23.1823C31.5009 22.9865 32.1606 22.6045 32.6906 22.0745C33.2206 21.5445 33.6025 20.8849 33.7983 20.1613C34.6434 15.4483 34.9038 8.28133 33.7765 3.74347V3.74333Z" fill="#FF0000"/>
<path d="M14.0532 17.0746L22.8971 11.9522L14.0534 6.82983L14.0532 17.0746Z" fill="white"/>
</g>
<defs>
<clipPath id="clip0_423_51380">
<rect width="34.1333" height="24" fill="white" transform="translate(0.396973)"/>
</clipPath>
</defs>
</svg>
