<svg width="24" height="24" viewBox="0 0 24 24" fill="none" xmlns="http://www.w3.org/2000/svg">
<path d="M22.9085 13.0909C22.5812 13.0909 22.3631 13.3091 22.3631 13.6364V20.7273C22.3631 21.0546 22.1449 21.2727 21.8176 21.2727H2.18123C1.85395 21.2727 1.6358 21.0545 1.6358 20.7273V13.6364C1.6358 13.3091 1.41759 13.0909 1.09036 13.0909C0.763125 13.0909 0.544922 13.3091 0.544922 13.6364V20.7273C0.544922 21.6546 1.254 22.3637 2.18128 22.3637H21.8176C22.7449 22.3637 23.454 21.6546 23.454 20.7273V13.6364C23.454 13.3091 23.2358 13.0909 22.9085 13.0909Z" fill="white"/>
<path d="M22.3636 5.45459H1.63636C0.709078 5.45459 0 6.16367 0 7.09095V10.5819C0 11.3455 0.545437 12 1.25456 12.1637L9.8182 14.0727V15.8182C9.8182 16.1454 10.0364 16.3636 10.3636 16.3636H13.6364C13.9636 16.3636 14.1818 16.1454 14.1818 15.8182V14.0727L22.7454 12.1637C23.4546 12 24 11.3455 24 10.5818V7.0909C24 6.16367 23.2909 5.45459 22.3636 5.45459ZM13.0909 15.2727H10.9091V13.0909H13.0909V15.2727ZM22.9091 10.5818C22.9091 10.8545 22.7454 11.0727 22.4727 11.1273L14.1818 12.9818V12.5455C14.1818 12.2182 13.9636 12 13.6364 12H10.3636C10.0364 12 9.8182 12.2182 9.8182 12.5455V12.9818L1.52728 11.1273C1.25456 11.0727 1.09092 10.8546 1.09092 10.5819V7.09095C1.09092 6.76367 1.30913 6.54551 1.63636 6.54551H22.3636C22.6909 6.54551 22.9091 6.76371 22.9091 7.09095V10.5818Z" fill="white"/>
<path d="M14.7276 1.63635H9.27308C8.3458 1.63635 7.63672 2.34543 7.63672 3.27271V3.81815C7.63672 4.14543 7.85492 4.36358 8.18216 4.36358C8.50939 4.36358 8.72759 4.14538 8.72759 3.81815V3.27271C8.72759 2.94543 8.9458 2.72727 9.27303 2.72727H14.7276C15.0549 2.72727 15.273 2.94548 15.273 3.27271V3.81815C15.273 4.14543 15.4912 4.36358 15.8185 4.36358C16.1458 4.36358 16.3639 4.14538 16.3639 3.81815V3.27271C16.364 2.34543 15.6549 1.63635 14.7276 1.63635Z" fill="white"/>
</svg>
