<svg width="24" height="24" viewBox="0 0 24 24" fill="none" xmlns="http://www.w3.org/2000/svg">
<path d="M22.9085 13.0906C22.5812 13.0906 22.3631 13.3088 22.3631 13.636V20.7269C22.3631 21.0542 22.1449 21.2724 21.8176 21.2724H2.18123C1.85395 21.2724 1.6358 21.0542 1.6358 20.7269V13.636C1.6358 13.3087 1.41759 13.0906 1.09036 13.0906C0.763125 13.0906 0.544922 13.3088 0.544922 13.636V20.7269C0.544922 21.6542 1.254 22.3633 2.18128 22.3633H21.8176C22.7449 22.3633 23.454 21.6542 23.454 20.7269V13.636C23.454 13.3087 23.2358 13.0906 22.9085 13.0906Z" fill="#4F4F4F"/>
<path d="M22.3636 5.45532H1.63636C0.709078 5.45532 0 6.1644 0 7.09168V10.5826C0 11.3462 0.545437 12.0008 1.25456 12.1644L9.8182 14.0735V15.8189C9.8182 16.1462 10.0364 16.3643 10.3636 16.3643H13.6364C13.9636 16.3643 14.1818 16.1461 14.1818 15.8189V14.0735L22.7454 12.1644C23.4546 12.0008 24 11.3462 24 10.5825V7.09163C24 6.1644 23.2909 5.45532 22.3636 5.45532ZM13.0909 15.2735H10.9091V13.0917H13.0909V15.2735ZM22.9091 10.5825C22.9091 10.8553 22.7454 11.0735 22.4727 11.128L14.1818 12.9825V12.5462C14.1818 12.2189 13.9636 12.0008 13.6364 12.0008H10.3636C10.0364 12.0008 9.8182 12.219 9.8182 12.5462V12.9825L1.52728 11.128C1.25456 11.0735 1.09092 10.8553 1.09092 10.5826V7.09168C1.09092 6.7644 1.30913 6.54624 1.63636 6.54624H22.3636C22.6909 6.54624 22.9091 6.76445 22.9091 7.09168V10.5825Z" fill="#4F4F4F"/>
<path d="M14.7276 1.63721H9.27308C8.3458 1.63721 7.63672 2.34628 7.63672 3.27356V3.819C7.63672 4.14628 7.85492 4.36444 8.18216 4.36444C8.50939 4.36444 8.72759 4.14623 8.72759 3.819V3.27356C8.72759 2.94628 8.9458 2.72813 9.27303 2.72813H14.7276C15.0549 2.72813 15.273 2.94633 15.273 3.27356V3.819C15.273 4.14628 15.4912 4.36444 15.8185 4.36444C16.1458 4.36444 16.3639 4.14623 16.3639 3.819V3.27356C16.364 2.34628 15.6549 1.63721 14.7276 1.63721Z" fill="#4F4F4F"/>
</svg>
