<svg width="215" height="215" viewBox="0 0 215 215" fill="none" xmlns="http://www.w3.org/2000/svg">
<path d="M135.171 18.2682C136.831 17.3315 138.937 18.0439 139.687 19.7961L142.471 26.295C143.118 27.8062 144.805 28.5815 146.373 28.0891L153.118 25.9712C154.937 25.4002 156.849 26.5348 157.218 28.4047L158.59 35.3404C158.909 36.953 160.397 38.0621 162.034 37.9065L169.072 37.2373C170.97 37.0569 172.604 38.5642 172.577 40.4701L172.476 47.5394C172.453 49.1831 173.678 50.5775 175.312 50.7655L182.335 51.5743C184.229 51.7924 185.514 53.6064 185.091 55.4651L183.523 62.3591C183.158 63.9621 184.067 65.5806 185.626 66.1041L192.328 68.3555C194.135 68.9628 195.014 71.0042 194.214 72.7343L191.247 79.1517C190.557 80.6436 191.11 82.416 192.525 83.252L198.613 86.8477C200.254 87.8171 200.69 89.9968 199.548 91.523L195.311 97.1831C194.327 98.4995 194.497 100.347 195.708 101.459L200.916 106.242C202.319 107.532 202.292 109.754 200.858 111.01L195.538 115.666C194.3 116.748 194.083 118.591 195.036 119.931L199.136 125.692C200.241 127.245 199.753 129.414 198.088 130.343L191.916 133.791C190.48 134.592 189.885 136.351 190.539 137.859L193.351 144.346C194.109 146.095 193.181 148.115 191.359 148.678L184.604 150.767C183.034 151.253 182.086 152.849 182.413 154.461L183.814 161.391C184.191 163.259 182.863 165.041 180.966 165.214L173.924 165.853C172.287 166.001 171.029 167.366 171.012 169.01L170.942 176.08C170.923 177.985 169.253 179.453 167.361 179.227L160.341 178.388C158.708 178.193 157.193 179.266 156.836 180.871L155.297 187.771C154.883 189.632 152.944 190.72 151.14 190.105L144.447 187.826C142.891 187.294 141.186 188.029 140.503 189.525L137.563 195.955C136.771 197.687 134.648 198.35 133.011 197.374L126.939 193.751C125.527 192.91 123.707 193.273 122.728 194.594L118.515 200.272C117.38 201.803 115.166 202.009 113.768 200.713L108.582 195.908C107.376 194.79 105.52 194.769 104.287 195.856L98.9863 200.536C97.5573 201.796 95.3494 201.538 94.251 199.98L90.1771 194.201C89.2296 192.858 87.4189 192.45 85.987 193.258L79.8294 196.732C78.1691 197.669 76.0633 196.957 75.3131 195.204L72.5291 188.705C71.8821 187.194 70.1955 186.419 68.6273 186.91L61.8816 189.029C60.0629 189.6 58.1516 188.465 57.7814 186.596L56.4101 179.659C56.091 178.047 54.6029 176.937 52.9662 177.093L45.9279 177.763C44.0301 177.944 42.3962 176.436 42.4232 174.53L42.5234 167.461C42.5472 165.816 41.3214 164.423 39.6886 164.234L32.6646 163.426C30.7711 163.208 29.4867 161.393 29.9091 159.535L31.477 152.641C31.8418 151.037 30.9332 149.419 29.3744 148.896L22.6727 146.644C20.8655 146.038 19.986 143.996 20.786 142.266L23.753 135.848C24.4428 134.356 23.8906 132.584 22.4751 131.748L16.3877 128.153C14.7465 127.183 14.3106 125.003 15.4527 123.477L19.6891 117.817C20.6741 116.501 20.5023 114.653 19.2917 113.541L14.0848 108.758C12.681 107.468 12.7078 105.246 14.1423 103.99L19.463 99.3345C20.7001 98.252 20.9164 96.4084 19.9633 95.0689L15.8646 89.3083C14.7596 87.7552 15.248 85.5865 16.9121 84.6569L23.0845 81.2091C24.5196 80.4075 25.1145 78.649 24.4608 77.1407L21.6494 70.6537C20.8914 68.9047 21.82 66.8849 23.641 66.3217L30.3953 64.2326C31.9658 63.7469 32.9133 62.1506 32.5874 60.5394L31.1862 53.6095C30.8085 51.7412 32.1366 49.9587 34.035 49.7863L41.076 49.1471C42.7132 48.9985 43.9718 47.6342 43.9881 45.9903L44.0583 38.9206C44.0772 37.0146 45.7471 35.5471 47.6398 35.7732L54.6599 36.6119C56.2922 36.807 57.8069 35.7341 58.1646 34.1296L59.7031 27.229C60.1179 25.3685 62.0564 24.2804 63.8607 24.895L70.5529 27.1749C72.1091 27.705 73.8138 26.9706 74.4974 25.4756L77.4369 19.0455C78.2295 17.312 80.3518 16.6506 81.9888 17.6269L88.0609 21.2484C89.4728 22.0906 91.293 21.7265 92.2724 20.4062L96.4846 14.728C97.6202 13.1971 99.8337 12.9914 101.232 14.2869L106.418 19.0917C107.624 20.2089 109.48 20.2313 110.713 19.1434L116.014 14.4651C117.443 13.2038 119.651 13.4627 120.749 15.0206L124.823 20.7987C125.77 22.1423 127.581 22.55 129.013 21.7422L135.171 18.2682Z" fill="#00BEA4"/>
<path d="M46.5834 146.486V92.4667C46.5834 88.9646 48.2893 85.682 51.1553 83.6692L100.336 49.1308C104.044 46.527 108.986 46.527 112.693 49.1308L161.874 83.6692C164.74 85.682 166.446 88.9646 166.446 92.4667V146.486C166.446 152.424 161.633 157.237 155.695 157.237H57.3339C51.3966 157.237 46.5834 152.424 46.5834 146.486Z" fill="white"/>
<path d="M62.655 64.8763C62.655 59.9619 66.699 55.918 71.6134 55.918H140.198C145.113 55.918 149.157 59.9619 149.157 64.8763V137.152C149.157 142.067 145.113 146.11 140.198 146.11H71.6134C66.699 146.11 62.655 142.067 62.655 137.152V64.8763Z" fill="#D1F9E4"/>
<path d="M87.8737 142.625L55.2371 94.2238L107.133 127.4L159.028 94.2238L131.849 141.936C129.937 145.292 126.371 147.365 122.508 147.365H96.786C93.212 147.365 89.8719 145.588 87.8737 142.625Z" fill="white"/>
<path d="M47.8196 146.487V86.8063L106.515 125.986L165.21 86.8063V146.487C165.21 152.424 160.397 157.237 154.459 157.237H58.57C52.6327 157.237 47.8196 152.424 47.8196 146.487Z" fill="white"/>
<path d="M93.1666 86.8958L103.774 98.5416L123.356 77.0416" stroke="#00A690" stroke-width="5" stroke-linecap="round" stroke-linejoin="round"/>
</svg>
