<svg width="134" height="32" viewBox="0 0 134 32" fill="none" xmlns="http://www.w3.org/2000/svg">
<path fill-rule="evenodd" clip-rule="evenodd" d="M15.2526 0.0045759C6.76304 0.395088 0 7.40429 0 15.9937C0 18.6662 0.654701 21.1857 1.8124 23.4005L10.1648 17.7373C10.0002 17.1849 9.91171 16.5996 9.91171 15.9937C9.91171 13.1386 11.8755 10.7423 14.5256 10.0828L15.2526 0.0045759ZM21.8169 17.7974C21.9933 17.2274 22.0883 16.6217 22.0883 15.9937C22.0883 13.0996 20.0706 10.677 17.3657 10.0569L16.6402 0C25.1799 0.336154 32 7.36817 32 15.9937C32 18.6877 31.3347 21.2263 30.1595 23.4539L21.8169 17.7974ZM11.6047 20.2083C12.7129 21.3646 14.2724 22.0844 16 22.0844C17.7099 22.0844 19.2553 21.3792 20.3612 20.2436L29.4565 24.6564C26.6087 29.0746 21.6458 32 16 32C10.3374 32 5.36177 29.0572 2.51805 24.6169L11.6047 20.2083Z" fill="#D60E0E"/>
<path d="M40.666 20.25C40.858 20.382 41.152 20.52 41.548 20.664C41.944 20.808 42.412 20.88 42.952 20.88C43.66 20.88 44.194 20.73 44.554 20.43C44.914 20.118 45.154 19.638 45.274 18.99C45.394 18.342 45.454 17.514 45.454 16.506V9.72H47.488V16.218C47.488 17.178 47.434 18.054 47.326 18.846C47.23 19.638 47.032 20.322 46.732 20.898C46.432 21.474 45.982 21.918 45.382 22.23C44.794 22.542 44.002 22.698 43.006 22.698C42.406 22.698 41.878 22.632 41.422 22.5C40.966 22.368 40.552 22.17 40.18 21.906L40.666 20.25ZM54.0489 22.68C53.0649 22.68 52.2069 22.458 51.4749 22.014C50.7549 21.558 50.1969 20.964 49.8009 20.232C49.4049 19.488 49.2069 18.678 49.2069 17.802C49.2069 16.926 49.4049 16.122 49.8009 15.39C50.2089 14.646 50.7729 14.052 51.4929 13.608C52.2249 13.152 53.0769 12.924 54.0489 12.924C55.0209 12.924 55.8669 13.152 56.5869 13.608C57.3189 14.052 57.8829 14.646 58.2789 15.39C58.6869 16.122 58.8909 16.926 58.8909 17.802C58.8909 18.678 58.6929 19.488 58.2969 20.232C57.9009 20.964 57.3369 21.558 56.6049 22.014C55.8849 22.458 55.0329 22.68 54.0489 22.68ZM51.2409 17.82C51.2409 18.42 51.3669 18.96 51.6189 19.44C51.8709 19.92 52.2069 20.298 52.6269 20.574C53.0469 20.85 53.5209 20.988 54.0489 20.988C54.5649 20.988 55.0329 20.85 55.4529 20.574C55.8849 20.286 56.2269 19.902 56.4789 19.422C56.7309 18.942 56.8569 18.402 56.8569 17.802C56.8569 17.202 56.7309 16.662 56.4789 16.182C56.2269 15.702 55.8849 15.324 55.4529 15.048C55.0329 14.76 54.5649 14.616 54.0489 14.616C53.5329 14.616 53.0589 14.76 52.6269 15.048C52.2069 15.324 51.8709 15.708 51.6189 16.2C51.3669 16.68 51.2409 17.22 51.2409 17.82ZM65.723 22.68C65.003 22.68 64.349 22.512 63.761 22.176C63.173 21.828 62.717 21.366 62.393 20.79V22.5H60.647V9.36H62.627V14.868C62.999 14.268 63.461 13.794 64.013 13.446C64.577 13.098 65.237 12.924 65.993 12.924C66.833 12.924 67.565 13.152 68.189 13.608C68.813 14.064 69.299 14.67 69.647 15.426C69.995 16.17 70.169 16.974 70.169 17.838C70.169 18.726 69.971 19.536 69.575 20.268C69.191 21 68.663 21.588 67.991 22.032C67.319 22.464 66.563 22.68 65.723 22.68ZM65.201 20.988C65.777 20.988 66.287 20.844 66.731 20.556C67.175 20.256 67.517 19.866 67.757 19.386C68.009 18.906 68.135 18.39 68.135 17.838C68.135 17.274 68.015 16.746 67.775 16.254C67.547 15.762 67.223 15.366 66.803 15.066C66.383 14.766 65.897 14.616 65.345 14.616C64.745 14.616 64.205 14.814 63.725 15.21C63.245 15.606 62.879 16.086 62.627 16.65V19.134C62.723 19.494 62.909 19.812 63.185 20.088C63.461 20.364 63.779 20.586 64.139 20.754C64.511 20.91 64.865 20.988 65.201 20.988ZM87.395 22.5V13.392L83.633 20.304H82.445L78.665 13.392V22.5H76.649V9.72H78.809L83.039 17.532L87.269 9.72H89.429V22.5H87.395ZM91.2696 19.746C91.2696 19.146 91.4376 18.624 91.7736 18.18C92.1096 17.724 92.5776 17.376 93.1776 17.136C93.7896 16.884 94.4916 16.758 95.2836 16.758C95.7036 16.758 96.1296 16.794 96.5616 16.866C97.0056 16.926 97.3956 17.016 97.7316 17.136V16.542C97.7316 15.882 97.5336 15.366 97.1376 14.994C96.7416 14.622 96.1716 14.436 95.4276 14.436C94.9116 14.436 94.4136 14.526 93.9336 14.706C93.4536 14.886 92.9556 15.15 92.4396 15.498L91.7736 14.166C92.3976 13.758 93.0216 13.452 93.6456 13.248C94.2816 13.032 94.9476 12.924 95.6436 12.924C96.9036 12.924 97.8936 13.26 98.6136 13.932C99.3456 14.592 99.7116 15.534 99.7116 16.758V20.268C99.7116 20.496 99.7476 20.658 99.8196 20.754C99.9036 20.85 100.042 20.904 100.234 20.916V22.5C100.054 22.536 99.8916 22.56 99.7476 22.572C99.6036 22.584 99.4836 22.59 99.3876 22.59C98.9556 22.59 98.6316 22.488 98.4156 22.284C98.2116 22.068 98.0916 21.828 98.0556 21.564L98.0016 21.024C97.5936 21.552 97.0716 21.96 96.4356 22.248C95.7996 22.536 95.1576 22.68 94.5096 22.68C93.8856 22.68 93.3276 22.554 92.8356 22.302C92.3436 22.038 91.9596 21.684 91.6836 21.24C91.4076 20.796 91.2696 20.298 91.2696 19.746ZM97.2636 20.322C97.5756 20.01 97.7316 19.716 97.7316 19.44V18.36C97.0236 18.096 96.3036 17.964 95.5716 17.964C94.8516 17.964 94.2636 18.114 93.8076 18.414C93.3636 18.702 93.1416 19.092 93.1416 19.584C93.1416 19.992 93.3036 20.37 93.6276 20.718C93.9636 21.054 94.4436 21.222 95.0676 21.222C95.4876 21.222 95.8956 21.138 96.2916 20.97C96.6876 20.802 97.0116 20.586 97.2636 20.322ZM105.462 22.68C104.67 22.68 103.92 22.548 103.212 22.284C102.504 22.02 101.898 21.636 101.394 21.132L102.132 19.8C102.672 20.28 103.212 20.628 103.752 20.844C104.292 21.06 104.838 21.168 105.39 21.168C105.942 21.168 106.392 21.066 106.74 20.862C107.088 20.646 107.262 20.334 107.262 19.926C107.262 19.638 107.172 19.416 106.992 19.26C106.812 19.104 106.548 18.978 106.2 18.882C105.864 18.786 105.456 18.666 104.976 18.522C104.304 18.318 103.74 18.108 103.284 17.892C102.828 17.664 102.486 17.388 102.258 17.064C102.03 16.74 101.916 16.326 101.916 15.822C101.916 14.91 102.258 14.202 102.942 13.698C103.626 13.182 104.52 12.924 105.624 12.924C106.308 12.924 106.938 13.032 107.514 13.248C108.102 13.452 108.618 13.776 109.062 14.22L108.216 15.534C107.4 14.79 106.5 14.418 105.516 14.418C105.084 14.418 104.682 14.502 104.31 14.67C103.95 14.838 103.77 15.15 103.77 15.606C103.77 15.99 103.932 16.266 104.256 16.434C104.58 16.602 105.06 16.782 105.696 16.974C106.416 17.19 107.034 17.406 107.55 17.622C108.078 17.826 108.48 18.096 108.756 18.432C109.044 18.756 109.188 19.206 109.188 19.782C109.188 20.694 108.846 21.408 108.162 21.924C107.478 22.428 106.578 22.68 105.462 22.68ZM116.176 22.014C115.924 22.134 115.576 22.272 115.132 22.428C114.688 22.572 114.214 22.644 113.71 22.644C113.086 22.644 112.546 22.476 112.09 22.14C111.646 21.804 111.424 21.258 111.424 20.502V14.616H110.182V13.086H111.424V9.99H113.404V13.086H115.456V14.616H113.404V19.872C113.428 20.208 113.53 20.454 113.71 20.61C113.902 20.754 114.136 20.826 114.412 20.826C114.688 20.826 114.952 20.778 115.204 20.682C115.456 20.586 115.642 20.508 115.762 20.448L116.176 22.014ZM121.69 22.68C120.718 22.68 119.866 22.458 119.134 22.014C118.402 21.57 117.832 20.982 117.424 20.25C117.016 19.506 116.812 18.696 116.812 17.82C116.812 16.932 117.016 16.116 117.424 15.372C117.832 14.628 118.402 14.034 119.134 13.59C119.866 13.146 120.724 12.924 121.708 12.924C122.692 12.924 123.544 13.152 124.264 13.608C124.984 14.052 125.536 14.64 125.92 15.372C126.316 16.104 126.514 16.89 126.514 17.73C126.514 18.03 126.496 18.27 126.46 18.45H118.918C118.954 19.002 119.104 19.488 119.368 19.908C119.644 20.316 119.986 20.64 120.394 20.88C120.814 21.108 121.27 21.222 121.762 21.222C122.29 21.222 122.788 21.09 123.256 20.826C123.724 20.562 124.048 20.214 124.228 19.782L125.92 20.268C125.596 20.976 125.056 21.558 124.3 22.014C123.556 22.458 122.686 22.68 121.69 22.68ZM118.864 17.136H124.552C124.504 16.596 124.348 16.122 124.084 15.714C123.82 15.294 123.478 14.97 123.058 14.742C122.65 14.502 122.194 14.382 121.69 14.382C121.198 14.382 120.742 14.502 120.322 14.742C119.914 14.97 119.578 15.294 119.314 15.714C119.05 16.122 118.9 16.596 118.864 17.136ZM133.421 14.796C132.653 14.82 131.969 15 131.369 15.336C130.781 15.66 130.361 16.128 130.109 16.74V22.5H128.129V13.086H129.965V15.192C130.289 14.544 130.715 14.028 131.243 13.644C131.771 13.248 132.329 13.032 132.917 12.996C133.025 12.996 133.121 12.996 133.205 12.996C133.289 12.996 133.361 13.002 133.421 13.014V14.796Z" fill="black"/>
</svg>
