<svg width="30" height="24" viewBox="0 0 30 24" fill="none" xmlns="http://www.w3.org/2000/svg">
<path d="M29.3971 2.92246C28.3154 3.40211 27.1531 3.72628 25.9331 3.87212C27.1784 3.12571 28.1347 1.94374 28.5849 0.535432C27.4011 1.23796 26.1058 1.73294 24.7551 1.99897C23.6549 0.826877 22.0876 0.0943604 20.3528 0.0943604C17.022 0.0943604 14.3215 2.79476 14.3215 6.12537C14.3215 6.59813 14.3749 7.05838 14.4776 7.49991C9.46519 7.24831 5.02117 4.84728 2.04643 1.19836C1.52739 2.08912 1.22997 3.12525 1.22997 4.2304C1.22997 6.32288 2.29481 8.16881 3.91303 9.25042C2.95527 9.22042 2.01858 8.96174 1.18117 8.49597C1.18082 8.52123 1.18082 8.5465 1.18082 8.57187C1.18082 11.494 3.25975 13.9317 6.01872 14.4857C5.13059 14.7273 4.199 14.7626 3.29512 14.5891C4.06255 16.9852 6.28995 18.7288 8.92903 18.7776C6.86492 20.3951 4.26431 21.3594 1.43874 21.3594C0.951847 21.3594 0.471847 21.3308 0 21.2751C2.66905 22.9863 5.83923 23.9848 9.24517 23.9848C20.3388 23.9848 26.4051 14.7946 26.4051 6.82481C26.4051 6.56322 26.3993 6.30313 26.3876 6.04452C27.5683 5.19096 28.5875 4.13373 29.3971 2.92246Z" fill="#55ACEE"/>
</svg>
