<svg width="24" height="24" viewBox="0 0 24 24" fill="none" xmlns="http://www.w3.org/2000/svg">
<g clip-path="url(#clip0_414_26020)">
<path d="M12.0009 13.5186C4.78975 13.5186 0.818359 16.9299 0.818359 23.1244C0.818359 23.6082 1.21047 24.0003 1.69427 24.0003H22.3074C22.7912 24.0003 23.1833 23.6082 23.1833 23.1244C23.1834 16.9303 19.212 13.5186 12.0009 13.5186ZM2.60205 22.2485C2.94658 17.617 6.10422 15.2704 12.0009 15.2704C17.8975 15.2704 21.0552 17.617 21.4 22.2485H2.60205Z" fill="#828282"/>
<path d="M11.9997 0C8.68724 0 6.18945 2.54803 6.18945 5.92673C6.18945 9.40439 8.79589 12.2333 11.9997 12.2333C15.2034 12.2333 17.8099 9.40439 17.8099 5.92702C17.8099 2.54803 15.3121 0 11.9997 0ZM11.9997 10.4818C9.76171 10.4818 7.94127 8.43853 7.94127 5.92702C7.94127 3.50775 9.64813 1.75181 11.9997 1.75181C14.3136 1.75181 16.0581 3.54656 16.0581 5.92702C16.0581 8.43853 14.2376 10.4818 11.9997 10.4818Z" fill="#828282"/>
</g>
<defs>
<clipPath id="clip0_414_26020">
<rect width="24" height="24" fill="white"/>
</clipPath>
</defs>
</svg>
