<svg width="24" height="24" viewBox="0 0 24 24" fill="none" xmlns="http://www.w3.org/2000/svg">
<path d="M15.7335 9.30427C15.628 9.27417 15.5317 9.21816 15.4534 9.14135C15.375 9.06453 15.3171 8.96934 15.285 8.86444C15.1063 8.25896 14.8067 7.69603 14.4042 7.20969C14.0017 6.72336 13.5048 6.32374 12.9434 6.03501C12.382 5.74629 11.7679 5.57446 11.1382 5.52993C10.5085 5.48541 9.87631 5.5691 9.27988 5.77595C8.68346 5.98281 8.1352 6.30851 7.66829 6.73337C7.20138 7.15823 6.82553 7.6734 6.56347 8.24771C6.30141 8.82202 6.15859 9.44353 6.14366 10.0746C6.12874 10.7057 6.24201 11.3333 6.47662 11.9194C6.53052 12.0427 6.54212 12.1804 6.50963 12.311C6.47713 12.4416 6.40236 12.5578 6.29696 12.6415C5.83246 12.9863 5.46982 13.4502 5.24739 13.9842C5.02497 14.5181 4.95105 15.1023 5.03346 15.6749C5.16205 16.4489 5.56389 17.1511 6.16604 17.6542C6.7682 18.1572 7.53074 18.4277 8.31529 18.4165H11.4169C11.5716 18.4165 11.72 18.3551 11.8294 18.2457C11.9387 18.1363 12.0002 17.9879 12.0002 17.8332C12.0002 17.6785 11.9387 17.5301 11.8294 17.4207C11.72 17.3113 11.5716 17.2499 11.4169 17.2499H8.31529C7.81145 17.2621 7.31991 17.0934 6.92973 16.7744C6.53956 16.4554 6.27658 16.0072 6.18846 15.5109C6.13257 15.1462 6.17786 14.7731 6.3194 14.4323C6.46093 14.0916 6.69328 13.7962 6.99112 13.5784C7.30398 13.3445 7.53029 13.0134 7.6345 12.637C7.73872 12.2606 7.71493 11.8602 7.56687 11.4988C7.27413 10.7257 7.25908 9.8749 7.52429 9.09194C7.73615 8.47861 8.11555 7.93687 8.61949 7.52808C9.12343 7.1193 9.73178 6.85981 10.3756 6.77902C10.525 6.75979 10.6754 6.75005 10.826 6.74985C11.5802 6.74737 12.315 6.98927 12.9203 7.43935C13.5256 7.88943 13.9688 8.52346 14.1836 9.24652C14.2675 9.52207 14.4185 9.77244 14.6232 9.97508C14.8279 10.1777 15.0797 10.3263 15.3561 10.4074C16.0325 10.6074 16.6316 11.0093 17.0733 11.5592C17.5149 12.1091 17.7781 12.7809 17.8274 13.4845C17.8768 14.1881 17.71 14.89 17.3495 15.4962C16.9889 16.1024 16.4518 16.584 15.81 16.8765C15.715 16.9252 15.6356 16.9995 15.5808 17.0911C15.526 17.1827 15.4981 17.2878 15.5002 17.3945C15.4991 17.491 15.5222 17.5863 15.5675 17.6716C15.6127 17.7568 15.6787 17.8294 15.7593 17.8825C15.8399 17.9356 15.9325 17.9677 16.0287 17.9757C16.1249 17.9837 16.2216 17.9674 16.3099 17.9283C18.7214 16.7692 20.0315 13.7201 17.9899 10.7743C17.4277 10.041 16.6315 9.52221 15.7335 9.30427Z" fill="#F88E07"/>
<path d="M15.9124 14.7457C16.0218 14.6363 16.0832 14.488 16.0832 14.3333C16.0832 14.1786 16.0218 14.0303 15.9124 13.9209L14.9872 12.9957C14.6591 12.6676 14.214 12.4833 13.75 12.4833C13.286 12.4833 12.8409 12.6676 12.5127 12.9957L11.5876 13.9209C11.4813 14.0309 11.4225 14.1782 11.4239 14.3312C11.4252 14.4841 11.4865 14.6305 11.5947 14.7386C11.7028 14.8468 11.8491 14.9081 12.0021 14.9094C12.155 14.9108 12.3024 14.852 12.4124 14.7457L13.1667 13.9915V18.4166C13.1667 18.5713 13.2281 18.7197 13.3375 18.8291C13.4469 18.9385 13.5953 19 13.75 19C13.9047 19 14.0531 18.9385 14.1625 18.8291C14.2719 18.7197 14.3333 18.5713 14.3333 18.4166V13.9915L15.0876 14.7457C15.197 14.8551 15.3453 14.9165 15.5 14.9165C15.6547 14.9165 15.803 14.8551 15.9124 14.7457Z" fill="#F88E07"/>
<rect x="0.5" y="0.5" width="23" height="23" rx="3.5" stroke="#F88E07"/>
</svg>
