<svg width="24" height="24" viewBox="0 0 24 24" fill="none" xmlns="http://www.w3.org/2000/svg">
<g clip-path="url(#clip0_82_2457)">
<path d="M15.9351 16.8616C15.9862 16.9188 16.0255 16.9855 16.0508 17.0579C16.0761 17.1303 16.0868 17.2069 16.0824 17.2835C16.078 17.36 16.0586 17.435 16.0252 17.504C15.9918 17.573 15.9452 17.6348 15.8879 17.6858L14.9627 18.5106C14.8042 18.6676 14.6162 18.7916 14.4096 18.8756C14.203 18.9596 13.9818 19.0019 13.7587 19.0001C13.5274 19.0005 13.2983 18.9553 13.0844 18.867C12.8706 18.7787 12.6763 18.6491 12.5127 18.4856L11.6121 17.6841C11.5548 17.6331 11.5082 17.5714 11.4748 17.5024C11.4415 17.4335 11.422 17.3586 11.4176 17.2821C11.4086 17.1277 11.4613 16.976 11.5642 16.8604C11.6671 16.7448 11.8117 16.6749 11.9662 16.6659C12.0426 16.6614 12.1192 16.6721 12.1916 16.6973C12.264 16.7224 12.3307 16.7616 12.3879 16.8126L13.1666 17.5091V13.1667C13.1666 13.012 13.2281 12.8636 13.3375 12.7542C13.4469 12.6449 13.5953 12.5834 13.75 12.5834C13.9047 12.5834 14.0531 12.6449 14.1625 12.7542C14.2718 12.8636 14.3333 13.012 14.3333 13.1667V17.5096L15.1121 16.8143C15.2275 16.7115 15.379 16.6588 15.5334 16.6676C15.6877 16.6765 15.8322 16.7462 15.9351 16.8616ZM15.7076 9.29398C15.6075 9.26288 15.5166 9.20744 15.4431 9.13262C15.3696 9.0578 15.3158 8.96593 15.2865 8.86523C14.9776 7.87361 14.3468 7.01337 13.4939 6.42072C12.6409 5.82806 11.6147 5.53687 10.5776 5.59325C9.54056 5.64962 8.55193 6.05035 7.76829 6.73197C6.98465 7.41359 6.45078 8.33714 6.25122 9.35639C6.04647 10.3872 6.21171 11.4571 6.71789 12.3781C6.12782 12.6827 5.648 13.1645 5.34584 13.7559C5.04368 14.3472 4.93436 15.0184 5.03322 15.6751C5.18527 16.438 5.5937 17.1259 6.19068 17.6246C6.78767 18.1233 7.53729 18.4028 8.31506 18.4167H9.66664C9.82135 18.4167 9.96972 18.3553 10.0791 18.2459C10.1885 18.1365 10.25 17.9881 10.25 17.8334C10.25 17.6787 10.1885 17.5303 10.0791 17.4209C9.96972 17.3115 9.82135 17.2501 9.66664 17.2501H8.31506C7.81687 17.2405 7.33634 17.0638 6.95063 16.7483C6.56493 16.4329 6.29642 15.997 6.18822 15.5106C6.12488 15.0926 6.194 14.6654 6.38587 14.2887C6.57775 13.9121 6.88275 13.605 7.25806 13.4106C7.52557 13.2627 7.7241 13.0155 7.81067 12.7223C7.89725 12.4292 7.8649 12.1138 7.72064 11.8443C7.49414 11.4123 7.36043 10.9378 7.32809 10.4511C7.29575 9.96438 7.3655 9.4763 7.53286 9.01814C7.70021 8.55998 7.96149 8.14186 8.29992 7.79061C8.63835 7.43935 9.04646 7.16271 9.49807 6.97842C9.94969 6.79414 10.4348 6.70629 10.9224 6.72051C11.41 6.73473 11.8892 6.85069 12.3293 7.06097C12.7694 7.27126 13.1607 7.57121 13.4781 7.94159C13.7955 8.31197 14.0319 8.7446 14.1723 9.21173C14.2586 9.49331 14.4124 9.74954 14.6203 9.95815C14.8282 10.1668 15.0839 10.3214 15.3652 10.4087C16.1272 10.6406 16.7867 11.1266 17.2338 11.7858C17.6809 12.445 17.8886 13.2375 17.8222 14.0312C17.7783 14.6484 17.5528 15.2388 17.1741 15.7281C17.0798 15.8508 17.0381 16.0059 17.0582 16.1594C17.0783 16.3128 17.1585 16.452 17.2812 16.5463C17.4039 16.6406 17.559 16.6823 17.7124 16.6622C17.8658 16.6421 18.005 16.5619 18.0993 16.4392C18.6132 15.7692 18.9213 14.9642 18.986 14.1222C19.0741 13.0639 18.7967 12.0073 18.2001 11.1287C17.6036 10.2501 16.7238 9.60252 15.7076 9.29398Z" fill="#F88E07"/>
</g>
<rect x="0.5" y="0.5" width="23" height="23" rx="3.5" stroke="#F88E07"/>
<defs>
<clipPath id="clip0_82_2457">
<rect width="14" height="14" fill="white" transform="translate(5 5)"/>
</clipPath>
</defs>
</svg>
