<svg width="18" height="18" viewBox="0 0 18 18" fill="none" xmlns="http://www.w3.org/2000/svg">
<path d="M14.0321 6.15752C13.9624 6.08722 13.8794 6.03143 13.7881 5.99335C13.6967 5.95527 13.5986 5.93567 13.4996 5.93567C13.4006 5.93567 13.3026 5.95527 13.2112 5.99335C13.1198 6.03143 13.0368 6.08722 12.9671 6.15752L9.53212 9.59251C9.4624 9.66281 9.37945 9.7186 9.28805 9.75668C9.19666 9.79475 9.09863 9.81436 8.99962 9.81436C8.90061 9.81436 8.80258 9.79475 8.71119 9.75668C8.61979 9.7186 8.53684 9.66281 8.46712 9.59251L5.03212 6.15752C4.9624 6.08722 4.87944 6.03143 4.78805 5.99335C4.69666 5.95527 4.59863 5.93567 4.49962 5.93567C4.40061 5.93567 4.30258 5.95527 4.21119 5.99335C4.11979 6.03143 4.03684 6.08722 3.96712 6.15752C3.82743 6.29804 3.74902 6.48813 3.74902 6.68627C3.74902 6.88441 3.82743 7.07449 3.96712 7.21502L7.40962 10.6575C7.83149 11.0789 8.40337 11.3155 8.99962 11.3155C9.59587 11.3155 10.1677 11.0789 10.5896 10.6575L14.0321 7.21502C14.1718 7.07449 14.2502 6.88441 14.2502 6.68627C14.2502 6.48813 14.1718 6.29804 14.0321 6.15752Z" fill="#E0E0E0"/>
</svg>
