<svg width="18" height="18" viewBox="0 0 18 18" fill="none" xmlns="http://www.w3.org/2000/svg">
<path d="M1.7029 14.4H1.80021L6.49479 13.3784C6.58623 13.3632 6.67096 13.3208 6.73801 13.2568L14.692 5.30276C15.273 4.72298 15.5972 3.93438 15.592 3.11361C15.593 2.28646 15.2699 1.49186 14.692 0.900105C14.1122 0.319062 13.3236 -0.00512083 12.5028 0.000140216C11.6768 -0.00716938 10.8845 0.327349 10.3137 0.924455L2.38395 8.87842C2.31402 8.9347 2.26304 9.01111 2.23799 9.09733L1.21642 13.7919C1.18853 13.9604 1.24272 14.1322 1.36238 14.2541C1.45219 14.3457 1.57459 14.3982 1.7029 14.4ZM12.5028 0.973108C13.6716 0.973015 14.6191 1.92042 14.6191 3.08917C14.6191 3.09731 14.6191 3.10546 14.619 3.11361C14.627 3.6704 14.4073 4.20633 14.0109 4.59737L11.0191 1.58115C11.4132 1.18946 11.9471 0.970641 12.5028 0.973108ZM10.338 2.2866L13.3298 5.27846L6.39743 12.1865L3.40557 9.21894L10.338 2.2866ZM3.0164 10.192L5.42447 12.6L2.3353 13.2811L3.0164 10.192Z" fill="#828282"/>
<path d="M17.1487 17.027H0.851474C0.582788 17.027 0.36499 17.2448 0.36499 17.5135C0.36499 17.7822 0.582788 18 0.851474 18H17.1487C17.4174 18 17.6351 17.7822 17.6351 17.5135C17.6351 17.2448 17.4174 17.027 17.1487 17.027Z" fill="#828282"/>
</svg>
