<svg width="65" height="64" viewBox="0 0 65 64" fill="none" xmlns="http://www.w3.org/2000/svg">
<g clip-path="url(#clip0_2218_33620)">
<path d="M64.3657 20.3116C64.3542 20.2804 64.3412 20.2503 64.3269 20.221C63.8635 19.1064 62.5664 18.4823 60.3614 18.3174C59.8435 18.2791 59.3953 18.6661 59.3565 19.1824C59.3179 19.6986 59.7053 20.1485 60.2215 20.1871C61.927 20.3147 62.522 20.7305 62.6045 20.9561C62.6049 20.9574 62.6057 20.9584 62.606 20.9595C62.7649 21.4056 61.9367 23.2417 56.5899 26.6024C56.1113 24.4648 55.3545 22.4313 54.3599 20.5413C55.0548 20.4419 55.7178 20.3606 56.3412 20.2987C56.8564 20.2476 57.2327 19.7885 57.1815 19.2733C57.1304 18.7581 56.6729 18.3814 56.1562 18.4329C55.286 18.5192 54.3439 18.6416 53.3497 18.7969C48.9668 11.8994 41.2587 7.3125 32.4986 7.3125C25.4236 7.3125 18.7952 10.2916 14.1084 15.5306C13.0239 14.0911 11.3009 13.1584 9.36394 13.1584C6.09007 13.1584 3.42644 15.822 3.42644 19.0959C3.42644 22.1856 5.79907 24.7305 8.81782 25.0072C8.15019 27.2699 7.81119 29.6159 7.81119 32C7.81119 33.1431 7.89382 34.2839 8.05132 35.4128C2.38944 38.867 -0.0488046 41.5479 0.602945 43.5965C0.61082 43.6274 0.62032 43.658 0.63157 43.6886C1.13232 45.0536 2.88244 45.7326 5.94032 45.7326C7.49769 45.7326 9.39557 45.5559 11.6389 45.2045C13.3318 47.8691 15.5386 50.2146 18.1056 52.0595C18.2711 52.1786 18.4623 52.2359 18.6519 52.2359C18.9434 52.2359 19.2308 52.1004 19.4139 51.8455C19.7162 51.425 19.6203 50.8392 19.1998 50.5371C17.0402 48.9849 15.1554 47.05 13.6544 44.858C19.7407 43.7243 27.2411 41.5742 34.9706 38.7391C42.7001 35.904 49.8118 32.6945 55.1877 29.6241C55.2688 30.4052 55.3111 31.1979 55.3111 32.0001C55.3111 33.4549 55.1714 34.9043 54.8998 36.3218C54.6797 36.2969 54.4564 36.2829 54.2298 36.2829C50.9559 36.2829 48.2923 38.9465 48.2923 42.2204C48.2923 43.8966 48.9917 45.4118 50.1125 46.4924C48.1107 48.9201 45.6012 50.9384 42.8042 52.3574C39.5932 53.9865 36.1258 54.8125 32.4986 54.8125C28.9852 54.8125 25.6157 54.0352 22.4838 52.5025C22.0191 52.2749 21.4573 52.4674 21.2297 52.9324C21.0021 53.3974 21.1946 53.9589 21.6596 54.1865C25.0502 55.846 28.6969 56.6874 32.4986 56.6874C36.4234 56.6874 40.1762 55.7931 43.6526 54.0294C46.7231 52.4716 49.4739 50.2474 51.6547 47.5696C52.4341 47.9464 53.3077 48.1577 54.2298 48.1577C57.5037 48.1577 60.1673 45.4941 60.1673 42.2202C60.1673 39.8322 58.7495 37.7704 56.7122 36.8286C57.0259 35.246 57.1861 33.6256 57.1861 32C57.1861 30.8415 57.1039 29.7021 56.9488 28.5858C62.6942 25.0811 65.1215 22.372 64.3657 20.3116ZM58.2923 42.2202C58.2923 44.4603 56.4699 46.2827 54.2298 46.2827C51.9897 46.2827 50.1673 44.4603 50.1673 42.2202C50.1673 39.9802 51.9897 38.1577 54.2298 38.1577C56.4699 38.1577 58.2923 39.9802 58.2923 42.2202ZM5.30144 19.0959C5.30144 16.8559 7.12382 15.0334 9.36394 15.0334C11.6041 15.0334 13.4264 16.8559 13.4264 19.0959C13.4264 21.3359 11.6041 23.1584 9.36394 23.1584C7.12382 23.1584 5.30144 21.3359 5.30144 19.0959ZM2.39357 43.047C2.39307 43.0457 2.39282 43.0444 2.39232 43.0431C2.30757 42.8125 2.50119 42.0941 3.76394 40.8647C4.80807 39.8481 6.40157 38.6605 8.41032 37.3969C8.88057 39.5021 9.62157 41.5428 10.6212 43.4489C10.6232 43.4526 10.6253 43.4562 10.6272 43.46C4.38857 44.3515 2.56569 43.4907 2.39357 43.047ZM34.3248 36.9787C26.3797 39.8929 18.6951 42.0718 12.5901 43.1456C12.4847 42.9579 12.3817 42.7689 12.2817 42.5783C10.5838 39.34 9.68619 35.6821 9.68619 32C9.68619 29.5535 10.0711 27.1509 10.8301 24.8499C13.3972 24.1954 15.3014 21.864 15.3014 19.096C15.3014 18.4805 15.2072 17.8865 15.0326 17.3277C19.3843 12.1482 25.7196 9.1875 32.4986 9.1875C43.5834 9.1875 52.8454 17.1354 54.8895 27.6313C49.5384 30.759 42.2686 34.0651 34.3248 36.9787Z" fill="#BDBDBD"/>
<path d="M32.2494 15.335C30.4297 15.335 28.6507 15.9653 27.2401 17.11C26.8379 17.4362 26.7766 18.0266 27.1027 18.4286C27.4288 18.8306 28.0193 18.8921 28.4214 18.5658C29.5147 17.6787 30.8384 17.2098 32.2494 17.2098C35.6021 17.2098 38.3296 19.9373 38.3296 23.29C38.3296 26.6426 35.6021 29.3702 32.2494 29.3702C28.8968 29.3702 26.1693 26.6427 26.1693 23.29C26.1693 22.6463 26.2692 22.0127 26.4662 21.407C26.6263 20.9146 26.3571 20.3856 25.8647 20.2255C25.3728 20.0656 24.8433 20.3346 24.6833 20.8271C24.4253 21.6205 24.2944 22.4491 24.2944 23.2901C24.2944 27.6766 27.8632 31.2453 32.2496 31.2453C36.6359 31.2453 40.2047 27.6767 40.2047 23.2901C40.2047 18.9036 36.6359 15.335 32.2494 15.335Z" fill="#BDBDBD"/>
</g>
<defs>
<clipPath id="clip0_2218_33620">
<rect width="64" height="64" fill="white" transform="translate(0.5)"/>
</clipPath>
</defs>
</svg>
