<svg width="24" height="24" viewBox="0 0 24 24" fill="none" xmlns="http://www.w3.org/2000/svg">
<path d="M14.9167 11.4167H12.5833V9.08333C12.5833 8.92862 12.5219 8.78025 12.4125 8.67085C12.3031 8.56146 12.1547 8.5 12 8.5C11.8453 8.5 11.6969 8.56146 11.5875 8.67085C11.4781 8.78025 11.4167 8.92862 11.4167 9.08333V11.4167H9.08333C8.92862 11.4167 8.78025 11.4781 8.67085 11.5875C8.56146 11.6969 8.5 11.8453 8.5 12C8.5 12.1547 8.56146 12.3031 8.67085 12.4125C8.78025 12.5219 8.92862 12.5833 9.08333 12.5833H11.4167V14.9167C11.4167 15.0714 11.4781 15.2197 11.5875 15.3291C11.6969 15.4385 11.8453 15.5 12 15.5C12.1547 15.5 12.3031 15.4385 12.4125 15.3291C12.5219 15.2197 12.5833 15.0714 12.5833 14.9167V12.5833H14.9167C15.0714 12.5833 15.2197 12.5219 15.3291 12.4125C15.4385 12.3031 15.5 12.1547 15.5 12C15.5 11.8453 15.4385 11.6969 15.3291 11.5875C15.2197 11.4781 15.0714 11.4167 14.9167 11.4167Z" fill="#F88E07"/>
<rect x="0.5" y="0.5" width="23" height="23" rx="3.5" stroke="#F88E07"/>
</svg>
