<svg width="14" height="15" viewBox="0 0 14 15" fill="none" xmlns="http://www.w3.org/2000/svg">
<g clip-path="url(#clip0_112_2600)">
<path d="M13.8282 13.5047L10.3463 10.0228C11.2952 8.86227 11.7617 7.38148 11.6494 5.88667C11.5371 4.39186 10.8545 2.9974 9.7429 1.99173C8.63128 0.986053 7.17565 0.446109 5.6771 0.483578C4.17854 0.521046 2.75172 1.13306 1.69175 2.19303C0.631779 3.253 0.0197647 4.67983 -0.0177039 6.17838C-0.0551725 7.67693 0.484772 9.13256 1.49044 10.2442C2.49612 11.3558 3.89058 12.0384 5.38538 12.1507C6.88019 12.263 8.36099 11.7965 9.52147 10.8476L13.0034 14.3295C13.1134 14.4358 13.2608 14.4946 13.4137 14.4932C13.5667 14.4919 13.713 14.4306 13.8211 14.3224C13.9293 14.2142 13.9906 14.0679 13.992 13.915C13.9933 13.762 13.9345 13.6147 13.8282 13.5047ZM5.83247 11.0004C4.90949 11.0004 4.00724 10.7267 3.23981 10.2139C2.47238 9.70117 1.87424 8.97233 1.52104 8.11961C1.16783 7.26689 1.07541 6.32858 1.25548 5.42333C1.43554 4.51809 1.88 3.68657 2.53264 3.03392C3.18529 2.38128 4.01681 1.93682 4.92205 1.75676C5.8273 1.57669 6.76561 1.66911 7.61833 2.02232C8.47105 2.37553 9.19989 2.97366 9.71267 3.74109C10.2254 4.50852 10.4991 5.41078 10.4991 6.33376C10.4978 7.57101 10.0056 8.75718 9.13077 9.63205C8.2559 10.5069 7.06972 10.999 5.83247 11.0004Z" fill="#828282"/>
</g>
<defs>
<clipPath id="clip0_112_2600">
<rect width="14" height="14" fill="white" transform="translate(0 0.5)"/>
</clipPath>
</defs>
</svg>
