<svg width="24" height="24" viewBox="0 0 24 24" fill="none" xmlns="http://www.w3.org/2000/svg">
<g clip-path="url(#clip0_82_2422)">
<path d="M18.9905 6.41297C19.0587 6.09527 18.7473 5.82738 18.4434 5.94332L5.26387 10.9745C5.10525 11.0351 5.00033 11.1871 5 11.3569C4.99967 11.5267 5.10399 11.6791 5.26239 11.7403L8.96478 13.1702V17.6741C8.96478 17.864 9.09523 18.0291 9.28008 18.0731C9.46369 18.1167 9.65515 18.0294 9.74122 17.8586L11.2725 14.82L15.0094 17.5933C15.2367 17.762 15.5634 17.6547 15.6461 17.3836C19.1351 5.94422 18.9843 6.44171 18.9905 6.41297ZM15.7371 7.85446L9.3168 12.4268L6.55434 11.3599L15.7371 7.85446ZM9.78508 13.1004L15.3814 9.11486C10.5658 14.195 10.8174 13.9276 10.7964 13.9559C10.7652 13.9979 10.8506 13.8343 9.78508 15.9487V13.1004ZM15.0311 16.5879L11.7418 14.1468L17.6893 7.87251L15.0311 16.5879Z" fill="#F88E07"/>
</g>
<rect x="0.5" y="0.5" width="23" height="23" rx="3.5" stroke="#F88E07"/>
<defs>
<clipPath id="clip0_82_2422">
<rect width="14" height="14" fill="white" transform="translate(5 5)"/>
</clipPath>
</defs>
</svg>
