<svg width="24" height="24" viewBox="0 0 24 24" fill="none" xmlns="http://www.w3.org/2000/svg">
<g clip-path="url(#clip0_81_1440)">
<path d="M17.25 7.33333H15.4416C15.3062 6.67499 14.948 6.08345 14.4274 5.65842C13.9067 5.23339 13.2554 5.00085 12.5833 5L11.4166 5C10.7445 5.00085 10.0932 5.23339 9.57256 5.65842C9.0519 6.08345 8.69368 6.67499 8.55829 7.33333H6.74996C6.59525 7.33333 6.44688 7.39479 6.33748 7.50419C6.22808 7.61358 6.16663 7.76196 6.16663 7.91667C6.16663 8.07138 6.22808 8.21975 6.33748 8.32915C6.44688 8.43854 6.59525 8.5 6.74996 8.5H7.33329V16.0833C7.33422 16.8566 7.64181 17.5979 8.18859 18.1447C8.73537 18.6915 9.4767 18.9991 10.25 19H13.75C14.5232 18.9991 15.2646 18.6915 15.8113 18.1447C16.3581 17.5979 16.6657 16.8566 16.6666 16.0833V8.5H17.25C17.4047 8.5 17.553 8.43854 17.6624 8.32915C17.7718 8.21975 17.8333 8.07138 17.8333 7.91667C17.8333 7.76196 17.7718 7.61358 17.6624 7.50419C17.553 7.39479 17.4047 7.33333 17.25 7.33333V7.33333ZM11.4166 6.16667H12.5833C12.9451 6.16711 13.298 6.27947 13.5934 6.48834C13.8889 6.69721 14.1125 6.99237 14.2335 7.33333H9.76638C9.88747 6.99237 10.1111 6.69721 10.4065 6.48834C10.702 6.27947 11.0548 6.16711 11.4166 6.16667V6.16667ZM15.5 16.0833C15.5 16.5475 15.3156 16.9926 14.9874 17.3208C14.6592 17.649 14.2141 17.8333 13.75 17.8333H10.25C9.78583 17.8333 9.34071 17.649 9.01252 17.3208C8.68433 16.9926 8.49996 16.5475 8.49996 16.0833V8.5H15.5V16.0833Z" fill="#F88E07"/>
<path d="M10.8333 15.4996C10.988 15.4996 11.1364 15.4382 11.2458 15.3288C11.3552 15.2194 11.4167 15.071 11.4167 14.9163V11.4163C11.4167 11.2616 11.3552 11.1132 11.2458 11.0038C11.1364 10.8944 10.988 10.833 10.8333 10.833C10.6786 10.833 10.5303 10.8944 10.4209 11.0038C10.3115 11.1132 10.25 11.2616 10.25 11.4163V14.9163C10.25 15.071 10.3115 15.2194 10.4209 15.3288C10.5303 15.4382 10.6786 15.4996 10.8333 15.4996Z" fill="#F88E07"/>
<path d="M13.1666 15.4996C13.3213 15.4996 13.4697 15.4382 13.5791 15.3288C13.6885 15.2194 13.7499 15.071 13.7499 14.9163V11.4163C13.7499 11.2616 13.6885 11.1132 13.5791 11.0038C13.4697 10.8944 13.3213 10.833 13.1666 10.833C13.0119 10.833 12.8635 10.8944 12.7541 11.0038C12.6447 11.1132 12.5833 11.2616 12.5833 11.4163V14.9163C12.5833 15.071 12.6447 15.2194 12.7541 15.3288C12.8635 15.4382 13.0119 15.4996 13.1666 15.4996Z" fill="#F88E07"/>
</g>
<rect x="0.5" y="0.5" width="23" height="23" rx="3.5" stroke="#F88E07"/>
<defs>
<clipPath id="clip0_81_1440">
<rect width="14" height="14" fill="white" transform="translate(5 5)"/>
</clipPath>
</defs>
</svg>
