<svg width="18" height="18" viewBox="0 0 18 18" fill="none" xmlns="http://www.w3.org/2000/svg">
<path d="M17.9333 8.78698C17.7916 8.58072 14.385 3.74989 8.99996 3.74989C4.37912 3.74989 0.261558 8.55298 0.0883051 8.75773C-0.029435 8.89723 -0.029435 9.10199 0.0883051 9.24223C0.261558 9.44698 4.37912 14.2501 8.99996 14.2501C13.6208 14.2501 17.7383 9.44698 17.9116 9.24223C18.0203 9.11324 18.0301 8.92649 17.9333 8.78698ZM8.99996 13.5001C5.29566 13.5001 1.77358 9.96751 0.878841 9C1.7721 8.03174 5.29042 4.49993 8.99996 4.49993C13.3343 4.49993 16.3936 8.02724 17.1406 8.97975C16.278 9.9165 12.7358 13.5001 8.99996 13.5001Z" fill="black"/>
<path d="M9.00003 5.99992C7.34552 5.99992 6 7.34544 6 8.99996C6 10.6545 7.34552 12 9.00003 12C10.6545 12 12.0001 10.6545 12.0001 8.99996C12.0001 7.34544 10.6545 5.99992 9.00003 5.99992ZM9.00003 11.25C7.75953 11.25 6.75 10.2405 6.75 8.99999C6.75 7.75949 7.75953 6.74996 9.00003 6.74996C10.2405 6.74996 11.2501 7.75949 11.2501 8.99999C11.2501 10.2405 10.2405 11.25 9.00003 11.25Z" fill="black"/>
</svg>
